<?xml version="1.0" encoding="UTF-8" standalone="no"?>
<!-- Created with Inkscape (http://www.inkscape.org/) -->

<svg
   xmlns:dc="http://purl.org/dc/elements/1.1/"
   xmlns:cc="http://creativecommons.org/ns#"
   xmlns:rdf="http://www.w3.org/1999/02/22-rdf-syntax-ns#"
   xmlns:svg="http://www.w3.org/2000/svg"
   xmlns="http://www.w3.org/2000/svg"
   xmlns:xlink="http://www.w3.org/1999/xlink"
   xmlns:sodipodi="http://sodipodi.sourceforge.net/DTD/sodipodi-0.dtd"
   xmlns:inkscape="http://www.inkscape.org/namespaces/inkscape"
   width="210mm"
   height="297mm"
   viewBox="0 0 210 297"
   version="1.1"
   id="svg8"
   inkscape:version="0.92.2 (5c3e80d, 2017-08-06)"
   sodipodi:docname="logo_poney.svg">
  <defs
     id="defs2" />
  <sodipodi:namedview
     id="base"
     pagecolor="#ffffff"
     bordercolor="#666666"
     borderopacity="1.0"
     inkscape:pageopacity="0.0"
     inkscape:pageshadow="2"
     inkscape:zoom="0.49497475"
     inkscape:cx="118.99237"
     inkscape:cy="755.59902"
     inkscape:document-units="mm"
     inkscape:current-layer="layer1"
     showgrid="false"
     showguides="false"
     inkscape:window-width="1304"
     inkscape:window-height="745"
     inkscape:window-x="-8"
     inkscape:window-y="-8"
     inkscape:window-maximized="1" />
  <metadata
     id="metadata5">
    <rdf:RDF>
      <cc:Work
         rdf:about="">
        <dc:format>image/svg+xml</dc:format>
        <dc:type
           rdf:resource="http://purl.org/dc/dcmitype/StillImage" />
        <dc:title />
      </cc:Work>
    </rdf:RDF>
  </metadata>
  <g
     inkscape:label="Calque 1"
     inkscape:groupmode="layer"
     id="layer1">
    <g
       id="g28622"
       transform="translate(105.2395,-1.3265217)">
      <path
         style="fill:#fcfcfb;stroke-width:0.35277778"
         d="M 17.215561,89.875282 V 54.421116 H 54.257229 91.298897 V 89.875282 125.32945 H 54.257229 17.215561 Z m 28.730145,25.046478 c 0.01921,-5.10281 0.10607,-5.88037 0.90632,-8.11314 0.986675,-2.75292 5.212016,-10.399727 5.890326,-10.660021 0.239691,-0.09198 0.862358,0.1683 1.383707,0.578393 1.534418,1.20697 4.448585,1.891807 6.859482,1.611994 2.008851,-0.233151 2.149271,-0.1963 3.415969,0.89645 3.921657,3.383124 5.035253,4.654984 5.422586,6.193214 0.432703,1.71842 2.303371,3.67302 3.515296,3.67302 0.39224,0 1.140778,-0.46043 1.663418,-1.02318 0.681239,-0.73351 1.52551,-1.14029 2.982253,-1.43685 3.59645,-0.73217 5.005141,-2.55252 5.418695,-7.002188 0.383688,-4.128329 0.15639,-4.660269 -3.711857,-8.686888 -4.019755,-4.184329 -5.306561,-6.45152 -5.555781,-9.788597 -0.25842,-3.460274 -0.328235,-3.611258 -2.935482,-6.348428 -1.351195,-1.41853 -2.460872,-2.896645 -2.465948,-3.284701 -0.0075,-0.574586 0.0856,-0.523769 0.501611,0.273762 0.583399,1.118436 2.180333,2.545499 3.826457,3.419432 0.619527,0.32891 1.635467,0.901444 2.25764,1.272298 0.875641,0.521936 1.226238,0.57927 1.55175,0.253758 0.325508,-0.325511 0.289003,-0.621244 -0.161583,-1.308923 -1.503563,-2.294731 -5.283895,-5.145049 -6.823791,-5.145049 -0.54973,0 -0.812878,-0.207039 -0.812878,-0.639554 0,-0.351755 -0.487782,-1.105817 -1.083959,-1.675695 -0.989348,-0.945703 -1.063724,-1.171782 -0.852117,-2.590198 0.271134,-1.817454 1.510739,-4.640019 2.794826,-6.363785 1.209096,-1.623099 1.142622,-2.059801 -0.356348,-2.341009 -2.167174,-0.406565 -4.370254,0.110015 -6.383977,1.49692 -1.742232,1.199921 -4.348981,4.372417 -4.348981,5.292847 0,0.222948 0.427507,1.22936 0.950013,2.23647 0.663353,1.278585 1.009312,2.592398 1.146528,4.354084 0.19382,2.488377 0.212686,2.528203 1.375812,2.904151 1.003893,0.324482 1.326381,0.729811 2.168215,2.725188 0.543906,1.289207 1.48166,2.966148 2.083901,3.726535 1.280788,1.617129 1.349054,2.014203 0.38942,2.265152 -0.388055,0.101478 -0.705555,0.41577 -0.705555,0.698426 0,0.519896 2.82491,3.357064 3.993974,4.011306 0.42757,0.239279 0.852237,1.325476 1.301097,3.327886 0.713211,3.181728 1.611475,5.710058 3.007272,8.464529 0.478434,0.944143 0.869879,1.869951 0.869879,2.057361 0,0.67482 -1.418378,0.77071 -2.663133,0.18003 -1.550395,-0.735708 -2.010079,-1.41091 -3.376352,-4.959283 -1.072162,-2.784535 -1.854038,-4.003343 -2.570053,-4.006275 -0.21246,-7.06e-4 -1.497545,0.559065 -2.85574,1.2443 -1.358194,0.685232 -3.444219,1.425102 -4.635613,1.644153 -1.93621,0.355991 -2.289288,0.326365 -3.32595,-0.279079 -1.334668,-0.779487 -2.635501,-3.115667 -2.967454,-5.329274 -0.267776,-1.785664 -0.63707,-1.913506 -1.250376,-0.432854 -0.312379,0.754147 -0.379445,2.029827 -0.222761,4.237196 l 0.224175,3.158198 -1.531008,2.079727 c -1.943613,2.640211 -4.397391,6.829881 -6.080229,10.381601 -1.514852,3.19718 -2.014285,7.06584 -1.178794,9.13107 0.775324,1.91651 1.887514,3.45714 2.425932,3.36045 0.416015,-0.0747 0.511766,-1.11243 0.529166,-5.73493 z M 33.947503,85.615972 c 0.126251,-0.503024 0.605276,-1.509782 1.0645,-2.23724 1.474024,-2.335005 1.894513,-5.321505 0.749249,-5.321505 -0.609325,0 -2.20971,1.772698 -2.648247,2.933382 -0.405988,1.074536 -0.5078,4.424529 -0.161867,5.326017 0.281947,0.734739 0.712008,0.432316 0.996365,-0.700654 z m -6.058396,-1.649717 c 0.615987,-0.436563 1.412213,-1.11125 1.769392,-1.499306 0.949519,-1.031601 2.056817,-3.504729 1.634849,-3.651405 -0.328399,-0.114151 -2.853733,1.426108 -3.673077,2.240294 -1.080703,1.073899 -2.290821,2.76538 -2.290821,3.202067 0,0.752668 1.294201,0.605205 2.559657,-0.29165 z m 15.786889,-4.382702 c 1.744739,-3.84794 1.744397,-6.465215 -8.46e-4,-6.465215 -0.513518,0 -0.812061,0.44646 -1.22231,1.827919 -0.720006,2.424521 -0.706573,6.991526 0.02056,6.991526 0.07432,0 0.61549,-1.059404 1.202592,-2.35423 z M 40.6293,77.575138 c 0.602867,-1.270449 0.745357,-2.95409 0.305165,-3.6058 -0.142549,-0.211047 -0.620211,-0.475002 -1.061471,-0.586567 -0.663732,-0.167813 -0.922667,0.03311 -1.499306,1.163418 -0.883416,1.731639 -0.928958,4.051732 -0.08876,4.521929 0.844036,0.472346 1.657636,-0.04578 2.344376,-1.49298 z m -3.413275,-2.926912 c 1.39588,-1.404594 3.171047,-2.876781 3.944815,-3.271528 1.448005,-0.738717 2.03191,-1.326542 1.673607,-1.684845 -0.389763,-0.389763 -3.232781,1.784397 -6.480691,4.956023 -1.794757,1.752603 -3.263194,3.34066 -3.263194,3.529016 0,0.459005 1.083768,-0.467984 4.125463,-3.528666 z m 18.857653,2.615251 c 0.443389,-0.63059 1.033071,-1.379551 1.310404,-1.664356 1.374754,-1.411798 2.22413,-4.811607 1.491223,-5.968921 -0.255566,-0.403557 -0.427337,-0.372581 -0.978104,0.176389 -2.160087,2.153049 -3.287194,4.576701 -3.287194,7.068558 0,1.831626 0.378276,1.931987 1.463671,0.38833 z m -5.913321,-0.352778 c 0.84418,-0.848277 2.295667,-3.628129 2.624868,-5.027083 0.182636,-0.776111 0.446271,-1.687586 0.585858,-2.025499 0.403306,-0.97632 -0.723198,-1.145888 -1.829802,-0.275432 -1.479828,1.164033 -2.128843,2.374862 -2.388988,4.456993 -0.218505,1.748853 -0.03377,3.311993 0.391407,3.311993 0.0978,0 0.375294,-0.198437 0.616657,-0.440972 z M 35.270404,74.046871 c -0.217969,-1.268706 -2.121495,-2.635199 -4.45138,-3.195535 -0.570249,-0.137145 -1.467881,-0.556299 -1.994737,-0.931454 -0.854963,-0.608787 -1.730948,-0.892143 -1.730948,-0.559911 0,0.0672 0.264443,0.662517 0.58765,1.322917 1.487915,3.040213 3.211672,4.231698 5.938739,4.104939 1.505042,-0.06996 1.747275,-0.178691 1.650676,-0.740956 z M 48.193938,71.79845 c 0.0613,-0.635426 -0.134627,-1.493208 -0.440973,-1.930578 -0.30321,-0.432894 -0.551292,-0.890849 -0.551292,-1.017678 0,-0.308165 3.193521,-0.669366 7.9375,-0.897766 2.134306,-0.102757 3.93614,-0.241902 4.004078,-0.309212 0.06793,-0.06731 0.0048,-0.314487 -0.140321,-0.549283 -0.402879,-0.65187 -9.255541,-0.212806 -10.692586,0.530319 -0.747438,0.386515 -1.529687,0.496212 -2.468252,0.34613 -1.630006,-0.260649 -1.977831,0.114671 -1.662752,1.794187 0.297785,1.587332 2.04386,3.441332 3.099898,3.291504 0.619521,-0.0879 0.829733,-0.376917 0.9147,-1.257623 z m 30.052181,-2.469239 c 0,-0.535252 -0.882146,-1.52896 -2.11696,-2.384688 -1.204916,-0.835007 -1.827103,-1.010355 -3.637058,-1.025021 -2.296361,-0.01861 -4.476538,0.702356 -4.476538,1.480349 0,0.252604 0.755481,0.809164 1.678845,1.2368 1.348976,0.62475 2.354047,0.782713 5.115278,0.803946 1.890038,0.01454 3.436433,-0.03559 3.436433,-0.111386 z M 40.891835,68.467266 c 2.251009,-1.265138 1.871624,-1.806151 -1.567918,-2.235894 -2.243228,-0.280272 -3.977063,-0.03293 -4.953473,0.70664 -0.557237,0.422073 -0.58479,0.572203 -0.176389,0.961089 1.482718,1.41187 4.709573,1.6856 6.69778,0.568165 z m 7.007646,-3.374622 c -0.01351,-1.07654 -1.268609,-3.407296 -2.327119,-4.321528 -0.56162,-0.485069 -1.715308,-1.334345 -2.563752,-1.88728 -1.976688,-1.288216 -2.378054,-0.776703 -1.268948,1.617188 0.956291,2.064055 2.339164,3.606899 4.0509,4.519508 1.562116,0.832839 2.118705,0.851871 2.108919,0.07211 z m 9.224117,-1.721916 c -1.028527,-1.95362 -2.429732,-3.384911 -4.453869,-4.549496 -0.970139,-0.558168 -1.843264,-1.113428 -1.940278,-1.23391 -0.09701,-0.120483 -0.454201,-0.32156 -0.79375,-0.446839 -1.036621,-0.382467 -0.737816,0.868158 0.74902,3.134967 0.75151,1.145742 1.691785,2.348958 2.089501,2.673815 1.206126,0.985169 4.450584,2.403719 4.769132,2.08517 0.164349,-0.16435 -0.02455,-0.913018 -0.419756,-1.663707 z"
         id="path28628"
         inkscape:connector-curvature="0" />
      <path
         style="fill:#a0c039;stroke-width:0.35277778"
         d="m 45.818413,119.832 c 0.01693,-0.41097 0.100521,-0.49456 0.213136,-0.21314 0.101908,0.25466 0.08938,0.55893 -0.02785,0.67616 -0.117226,0.11722 -0.200604,-0.0911 -0.185286,-0.46302 z m -0.267714,-6.14422 c 0,-1.26118 0.06403,-1.77712 0.142283,-1.14653 0.07826,0.63059 0.07826,1.66247 0,2.29306 -0.07825,0.63059 -0.142283,0.11465 -0.142283,-1.14653 z m 22.419863,-11.20069 c -0.438809,-0.55953 -0.426331,-0.57201 0.133195,-0.1332 0.339549,0.2663 0.617361,0.54411 0.617361,0.61736 0,0.29035 -0.289697,0.10348 -0.750556,-0.48416 z M 51.843486,94.99056 c 0,-0.485069 0.08007,-0.683507 0.177936,-0.440972 0.09786,0.242535 0.09786,0.63941 0,0.881944 -0.09786,0.242535 -0.177936,0.0441 -0.177936,-0.440972 z M 32.951138,86.316626 c -0.345933,-0.901488 -0.244121,-4.251481 0.161867,-5.326017 0.438537,-1.160684 2.038922,-2.933382 2.648247,-2.933382 1.145264,0 0.724775,2.9865 -0.749249,5.321505 -0.459224,0.727458 -0.938249,1.734216 -1.0645,2.23724 -0.284357,1.13297 -0.714418,1.435393 -0.996365,0.700654 z M 25.32945,84.257905 c 0,-0.436687 1.210118,-2.128168 2.290821,-3.202067 0.819344,-0.814186 3.344678,-2.354445 3.673077,-2.240294 0.421968,0.146676 -0.68533,2.619804 -1.634849,3.651405 -1.752297,1.903776 -4.329049,2.969795 -4.329049,1.790956 z m 16.794689,-2.878142 c -0.398746,-1.039113 -0.217025,-4.59585 0.328701,-6.433506 0.410249,-1.381459 0.708792,-1.827919 1.22231,-1.827919 0.950324,0 1.523929,1.261672 1.276651,2.808058 -0.193106,1.207622 -2.173621,6.011387 -2.478397,6.011387 -0.07432,0 -0.231493,-0.251109 -0.349265,-0.55802 z m -9.033577,-3.227904 c 0,-0.501433 6.364702,-6.584601 8.032866,-7.677541 0.828562,-0.542854 1.622312,-0.868315 1.763889,-0.723246 0.262039,0.268505 -0.433172,0.338861 -2.388422,2.073018 -2.636198,2.338105 -2.257954,1.730474 -3.306973,2.850587 -1.381654,1.686127 -4.101356,3.991925 -4.101356,3.477182 z m 21.519445,-1.276712 c 0,-2.491857 1.127107,-4.915509 3.287194,-7.068558 0.550767,-0.54897 0.722538,-0.579946 0.978104,-0.176389 0.732907,1.157314 -0.116469,4.557123 -1.491223,5.968921 -0.277333,0.284805 -0.867015,1.033766 -1.310404,1.664356 -1.085395,1.543657 -1.463671,1.443296 -1.463671,-0.38833 z m -5.469212,-0.232675 c -0.341225,-1.075103 0.172089,-4.380536 0.837885,-5.395485 0.324389,-0.494502 1.027559,-1.243438 1.562601,-1.664302 1.106604,-0.870456 2.233108,-0.700888 1.829802,0.275432 -0.139587,0.337913 -0.403222,1.249388 -0.585858,2.025499 -0.455311,1.934865 -2.549827,5.468055 -3.241525,5.468055 -0.0978,0 -0.279105,-0.319139 -0.402905,-0.709199 z M 74.365563,75.94056 c -1.168524,-0.585908 -1.650184,-0.920945 -3.175,-1.940277 -0.447603,-0.29922 -1.341632,-0.837992 -1.922218,-2.139242 -1.320363,-2.959292 4.810143,-0.436941 7.420191,3.546496 0.574005,0.87604 0.514584,1.568908 -0.232635,1.566222 -0.23109,-8.3e-4 -1.217215,-0.452777 -2.09034,-1.033199 z m -43.627975,-1.6819 c -0.615038,-0.336135 -1.422158,-1.00803 -1.7936,-1.4931 -0.60018,-0.783781 -1.850649,-3.084909 -1.850649,-3.405589 0,-0.332232 0.875985,-0.04888 1.730948,0.559911 0.526856,0.375155 1.424488,0.794309 1.994737,0.931454 2.329885,0.560336 4.233411,1.926829 4.45138,3.195535 0.0966,0.562265 -0.145634,0.670999 -1.650676,0.740956 -1.142007,0.05308 -2.158143,-0.133482 -2.88214,-0.529167 z m 38.950628,-5.624877 c -0.732723,-0.227325 -1.692226,-0.361382 -1.672653,-1.229336 0,-0.782165 2.174829,-1.503591 4.476538,-1.48494 1.809955,0.01467 2.432142,0.190014 3.637058,1.025021 1.234814,0.855728 2.11696,1.849436 2.11696,2.384688 0,0.0758 -1.546395,0.125921 -3.436433,0.111386 -2.765147,-0.02126 -3.7656,-0.178871 -5.12147,-0.806814 z m -33.951821,0.12757 c -0.582083,-0.220755 -1.276136,-0.608768 -1.54234,-0.862252 -0.408401,-0.388886 -0.380848,-0.539016 0.176389,-0.961089 0.97641,-0.739572 2.710245,-0.986912 4.953473,-0.70664 3.439542,0.429743 3.818927,0.970756 1.567918,2.235894 -1.491083,0.838036 -3.429587,0.948615 -5.15544,0.294087 z m 14.237563,-1.59966 c 0.899806,-0.118355 2.152719,-0.15935 4.075963,-0.239987 3.449465,-0.144628 4.757937,-0.143399 4.953009,0.172227 0.145112,0.234796 0.208255,0.481973 0.140321,0.549283 -0.06794,0.06731 -1.869772,0.208153 -4.004078,0.312986 -0.882564,-0.05399 -7.522016,0.630839 -7.769772,0.362842 -0.596872,-0.645635 1.952806,-1.067486 2.604557,-1.157351 z m -4.183396,-2.141161 c -1.711736,-0.912609 -3.094609,-2.455453 -4.0509,-4.519508 -1.109106,-2.393891 -0.70774,-2.905404 1.268948,-1.617188 2.457999,1.601888 3.538746,2.668937 4.234001,4.180336 1.206773,2.623374 0.807651,3.161115 -1.452049,1.95636 z m 9.580376,-0.583948 c -2.500214,-1.19656 -3.078528,-1.710074 -4.686217,-4.161134 -1.486836,-2.266809 -1.785641,-3.517434 -0.74902,-3.134967 0.339549,0.125279 0.696736,0.326356 0.79375,0.446839 0.09701,0.120482 0.970139,0.675742 1.940278,1.23391 0.970139,0.558169 2.207454,1.503046 2.749592,2.099729 1.310016,1.441821 2.496976,3.740531 2.124033,4.113474 -0.164348,0.164351 -1.141938,-0.104683 -2.172416,-0.597851 z"
         id="path28626"
         inkscape:connector-curvature="0"
         sodipodi:nodetypes="ccccsccsccscsccscsssscsscsscsscsccscscccscscssccsccsccsscccccsscsscccccsscccsssssscscccscasssacsccsccc" />
      <path
         style="fill:#4e4e42;stroke-width:0.35277778"
         d="m 43.70143,118.57033 c -1.778221,-3.55854 -1.402536,-6.92962 1.350258,-12.11607 1.8631,-3.51022 3.472082,-6.12748 5.376833,-8.746274 1.704101,-2.342927 1.785978,-2.552149 1.407904,-3.597694 -0.509688,-1.409517 -0.516834,-4.327808 -0.01413,-5.769867 0.423254,-1.214149 1.023822,-1.489526 1.023822,-0.46945 0,1.581876 1.196559,4.506144 2.292121,5.601706 0.916047,0.916047 1.45543,1.164682 2.523296,1.163133 1.896177,-0.0028 3.760554,-0.563989 6.754618,-2.033369 2.533823,-1.243513 2.584306,-1.252678 3.218579,-0.584136 0.354411,0.37356 1.149706,2.026017 1.767329,3.672131 0.617622,1.64611 1.391384,3.289554 1.719474,3.652089 0.83034,0.917511 2.335534,1.645251 3.402898,1.645251 1.12196,0 1.206415,-1.007559 0.218451,-2.606122 -0.888983,-1.438399 -2.691547,-6.48359 -3.3543,-9.38832 -0.375278,-1.644778 -0.751494,-2.439364 -1.330745,-2.81057 -1.235071,-0.791484 -3.806165,-3.395243 -3.806165,-3.854521 0,-0.22436 0.414129,-0.565379 0.920288,-0.75782 0.660562,-0.251146 0.823468,-0.472695 0.577229,-0.785019 -1.95307,-2.477214 -2.818857,-3.867071 -3.241188,-5.203105 -0.636232,-2.012714 -0.892856,-2.340871 -2.059626,-2.633711 -1.276463,-0.320372 -1.476573,-0.725823 -1.483248,-3.005254 -0.0042,-1.41764 -0.292477,-2.546521 -1.070416,-4.19094 l -1.064732,-2.250662 0.869103,-1.483012 c 1.691679,-2.886632 5.36793,-5.455881 7.831409,-5.473194 1.713153,-0.01204 3.307292,0.391842 3.307292,0.837916 0,0.22258 -0.446419,0.956799 -0.992043,1.631597 -1.377403,1.703505 -2.457767,4.173744 -2.733082,6.249167 -0.216824,1.634491 -0.157484,1.83048 0.873583,2.885246 1.0126,1.035875 1.088218,1.271603 0.89358,2.785676 l -0.212634,1.654039 2.173574,2.10389 c 2.697684,2.611203 3.037399,3.2764 3.249432,6.362777 0.254568,3.705531 1.725059,6.228455 6.068505,10.411749 2.873925,2.767958 3.533094,4.330065 3.250805,7.703803 -0.249971,2.98748 -1.250908,5.38238 -2.696125,6.45091 -0.48387,0.35775 -1.747743,0.81315 -2.808609,1.012 -1.431519,0.26833 -2.185092,0.64211 -2.922655,1.44964 -0.808771,0.88549 -1.16956,1.04396 -1.937741,0.85116 -1.337208,-0.33561 -2.828967,-2.02991 -3.111024,-3.5334 -0.24058,-1.2824 -1.022936,-2.24286 -4.038367,-4.9577 -2.756761,-2.481957 -2.92795,-2.555134 -5.069428,-2.16698 -2.105861,0.381702 -4.776195,-0.246461 -6.615603,-1.556233 -0.518971,-0.369542 -1.11264,-0.671893 -1.319258,-0.671893 -0.935943,0 -5.157894,7.849936 -6.451006,11.994446 -0.728813,2.33589 -0.814905,3.23472 -0.734938,7.67291 0.106025,5.88446 -0.241564,6.37966 -2.00332,2.85408 z M 38.100006,78.692227 c -0.658468,-0.658468 -0.49936,-2.721762 0.310995,-4.032944 1.412034,-2.284718 3.229514,-1.16363 2.667683,1.645525 -0.452999,2.265001 -1.922937,3.443159 -2.978678,2.387419 z m 7.82474,-6.080378 c -0.870462,-0.613974 -1.898073,-2.618787 -1.898073,-3.703037 0,-1.704209 2.401172,-1.324872 3.510038,0.554516 1.448131,2.4544 0.375167,4.550133 -1.611965,3.148521 z"
         id="path28624"
         inkscape:connector-curvature="0" />
    </g>
    <text
       xml:space="preserve"
       style="font-style:normal;font-variant:normal;font-weight:normal;font-stretch:normal;font-size:10.58333302px;line-height:1.25;font-family:Andalus;-inkscape-font-specification:'Andalus, Normal';font-variant-ligatures:normal;font-variant-caps:normal;font-variant-numeric:normal;font-feature-settings:normal;text-align:start;letter-spacing:0px;word-spacing:0px;writing-mode:lr-tb;text-anchor:start;fill:#000000;fill-opacity:1;stroke:none;stroke-width:0.26458332"
       id="text21"
       transform="translate(8.7371652,-14.289027)"><textPath
         xlink:href="#path25"
         id="textPath30"
         style="font-style:normal;font-variant:normal;font-weight:normal;font-stretch:normal;font-size:25.39999962px;font-family:Andalus;-inkscape-font-specification:'Andalus, Normal';font-variant-ligatures:normal;font-variant-caps:normal;font-variant-numeric:normal;font-feature-settings:normal;text-align:start;writing-mode:lr-tb;text-anchor:start">Bo Voyage</textPath></text>
    <path
       style="fill:none;stroke:none;stroke-width:0.81759804px;stroke-linecap:butt;stroke-linejoin:miter;stroke-opacity:1"
       d="m 2.2516571,110.47031 c 0,0 26.0533389,-15.680187 58.6965799,-15.654897 14.249821,0.011 52.312063,16.572357 57.765053,16.893117"
       id="path25"
       inkscape:connector-curvature="0"
       sodipodi:nodetypes="csc" />
  </g>
</svg>
